999
DXF from OpenSCAD
  0
SECTION
  2
HEADER
  9
$ACADVER
  1
AC1006
  9
$INSBASE
 10
0.0
 20
0.0
 30
0.0
  9
$EXTMIN
 10
-60
 20
-30
  9
$EXTMAX
 10
46
 20
28
  9
$LINMIN
 10
-60
 20
-30
  9
$LINMAX
 10
46
 20
28
  0
ENDSEC
  0
SECTION
  2
TABLES
  0
TABLE
  2
LTYPE
 70
1
  0
LTYPE
  2
CONTINUOUS
 70
64
  3
Solid line
 72
65
 73
0
 40
0.000000
  0
ENDTAB
  0
TABLE
  2
LAYER
 70
6
  0
LAYER
  2
0
 70
64
 62
7
  6
CONTINUOUS
  0
ENDTAB
  0
TABLE
  2
STYLE
 70
0
  0
ENDTAB
  0
ENDSEC
  0
SECTION
  2
BLOCKS
  0
ENDSEC
  0
SECTION
  2
ENTITIES
  0
LWPOLYLINE
100
AcDbEntity
  8
0
100
AcDbPolyline
 90
60
 70
1
 10
39.5
 20
-23.5
 10
39.75
 20
-23.5
 10
39.75
 20
-27.5
 10
41.75
 20
-27.5
 10
41.75
 20
-23.5
 10
42
 20
-23.5
 10
42
 20
-25
 10
43.5
 20
-23.5
 10
43.5
 20
-25.6213
 10
43.75
 20
-25.6213
 10
43.75
 20
-29.6213
 10
45.75
 20
-29.6213
 10
45.75
 20
-25.6213
 10
46
 20
-25.6213
 10
46
 20
23.6213
 10
45.75
 20
23.6213
 10
45.75
 20
27.6213
 10
43.75
 20
27.6213
 10
43.75
 20
23.6213
 10
43.5
 20
23.6213
 10
43.5
 20
21.5
 10
42
 20
23
 10
42
 20
21.5
 10
41.75
 20
21.5
 10
41.75
 20
25.5
 10
39.75
 20
25.5
 10
39.75
 20
21.5
 10
39.5
 20
21.5
 10
39.5
 20
28
 10
-53.5
 20
28
 10
-53.5
 20
21.5
 10
-53.75
 20
21.5
 10
-53.75
 20
25.5
 10
-55.75
 20
25.5
 10
-55.75
 20
21.5
 10
-56
 20
21.5
 10
-56
 20
23
 10
-57.5
 20
21.5
 10
-57.5
 20
23.6213
 10
-57.75
 20
23.6213
 10
-57.75
 20
27.6213
 10
-59.75
 20
27.6213
 10
-59.75
 20
23.6213
 10
-60
 20
23.6213
 10
-60
 20
-25.6213
 10
-59.75
 20
-25.6213
 10
-59.75
 20
-29.6213
 10
-57.75
 20
-29.6213
 10
-57.75
 20
-25.6213
 10
-57.5
 20
-25.6213
 10
-57.5
 20
-23.5
 10
-56
 20
-25
 10
-56
 20
-23.5
 10
-55.75
 20
-23.5
 10
-55.75
 20
-27.5
 10
-53.75
 20
-27.5
 10
-53.75
 20
-23.5
 10
-53.5
 20
-23.5
 10
-53.5
 20
-30
 10
39.5
 20
-30
  0
LWPOLYLINE
100
AcDbEntity
  8
0
100
AcDbPolyline
 90
4
 70
1
 10
-53.4
 20
25.6
 10
-53.4
 20
27.9
 10
-22.6
 20
27.9
 10
-22.6
 20
25.6
  0
LWPOLYLINE
100
AcDbEntity
  8
0
100
AcDbPolyline
 90
4
 70
1
 10
-22.4
 20
25.6
 10
-22.4
 20
27.9
 10
8.4
 20
27.9
 10
8.4
 20
25.6
  0
LWPOLYLINE
100
AcDbEntity
  8
0
100
AcDbPolyline
 90
4
 70
1
 10
8.6
 20
25.6
 10
8.6
 20
27.9
 10
39.4
 20
27.9
 10
39.4
 20
25.6
  0
LWPOLYLINE
100
AcDbEntity
  8
0
100
AcDbPolyline
 90
4
 70
1
 10
-59.65
 20
23.7213
 10
-59.65
 20
27.5213
 10
-57.85
 20
27.5213
 10
-57.85
 20
23.7213
  0
LWPOLYLINE
100
AcDbEntity
  8
0
100
AcDbPolyline
 90
4
 70
1
 10
43.85
 20
23.7213
 10
43.85
 20
27.5213
 10
45.65
 20
27.5213
 10
45.65
 20
23.7213
  0
LWPOLYLINE
100
AcDbEntity
  8
0
100
AcDbPolyline
 90
4
 70
1
 10
-55.65
 20
21.6
 10
-55.65
 20
25.4
 10
-53.85
 20
25.4
 10
-53.85
 20
21.6
  0
LWPOLYLINE
100
AcDbEntity
  8
0
100
AcDbPolyline
 90
4
 70
1
 10
-53.4
 20
24.1
 10
-53.4
 20
25.4
 10
-22.6
 20
25.4
 10
-22.6
 20
24.1
  0
LWPOLYLINE
100
AcDbEntity
  8
0
100
AcDbPolyline
 90
4
 70
1
 10
-22.4
 20
24.1
 10
-22.4
 20
25.4
 10
8.4
 20
25.4
 10
8.4
 20
24.1
  0
LWPOLYLINE
100
AcDbEntity
  8
0
100
AcDbPolyline
 90
4
 70
1
 10
8.6
 20
24.1
 10
8.6
 20
25.4
 10
39.4
 20
25.4
 10
39.4
 20
24.1
  0
LWPOLYLINE
100
AcDbEntity
  8
0
100
AcDbPolyline
 90
4
 70
1
 10
39.85
 20
21.6
 10
39.85
 20
25.4
 10
41.65
 20
25.4
 10
41.65
 20
21.6
  0
LWPOLYLINE
100
AcDbEntity
  8
0
100
AcDbPolyline
 90
4
 70
1
 10
-53.4
 20
21.6
 10
-53.4
 20
23.9
 10
-22.6
 20
23.9
 10
-22.6
 20
21.6
  0
LWPOLYLINE
100
AcDbEntity
  8
0
100
AcDbPolyline
 90
4
 70
1
 10
-22.4
 20
21.6
 10
-22.4
 20
23.9
 10
8.4
 20
23.9
 10
8.4
 20
21.6
  0
LWPOLYLINE
100
AcDbEntity
  8
0
100
AcDbPolyline
 90
4
 70
1
 10
8.6
 20
21.6
 10
8.6
 20
23.9
 10
39.4
 20
23.9
 10
39.4
 20
21.6
  0
LWPOLYLINE
100
AcDbEntity
  8
0
100
AcDbPolyline
 90
4
 70
1
 10
-59.9
 20
21.6
 10
-59.9
 20
23.5213
 10
-57.6
 20
23.5213
 10
-57.6
 20
21.6
  0
LWPOLYLINE
100
AcDbEntity
  8
0
100
AcDbPolyline
 90
4
 70
1
 10
43.6
 20
21.6
 10
43.6
 20
23.5213
 10
45.9
 20
23.5213
 10
45.9
 20
21.6
  0
LWPOLYLINE
100
AcDbEntity
  8
0
100
AcDbPolyline
 90
4
 70
1
 10
-59.9
 20
-23.4
 10
-59.9
 20
21.4
 10
-57.6
 20
21.4
 10
-57.6
 20
-23.4
  0
LWPOLYLINE
100
AcDbEntity
  8
0
100
AcDbPolyline
 90
4
 70
1
 10
-57.4
 20
-23.4
 10
-57.4
 20
21.4
 10
-56.1
 20
21.4
 10
-56.1
 20
-23.4
  0
LWPOLYLINE
100
AcDbEntity
  8
0
100
AcDbPolyline
 90
4
 70
1
 10
-55.9
 20
-23.4
 10
-55.9
 20
21.4
 10
-53.6
 20
21.4
 10
-53.6
 20
-23.4
  0
LWPOLYLINE
100
AcDbEntity
  8
0
100
AcDbPolyline
 90
4
 70
1
 10
-53.4
 20
-23.4
 10
-53.4
 20
21.4
 10
-22.6
 20
21.4
 10
-22.6
 20
-23.4
  0
LWPOLYLINE
100
AcDbEntity
  8
0
100
AcDbPolyline
 90
4
 70
1
 10
-22.4
 20
-23.4
 10
-22.4
 20
21.4
 10
8.4
 20
21.4
 10
8.4
 20
-23.4
  0
LWPOLYLINE
100
AcDbEntity
  8
0
100
AcDbPolyline
 90
4
 70
1
 10
8.6
 20
-23.4
 10
8.6
 20
21.4
 10
39.4
 20
21.4
 10
39.4
 20
-23.4
  0
LWPOLYLINE
100
AcDbEntity
  8
0
100
AcDbPolyline
 90
4
 70
1
 10
39.6
 20
-23.4
 10
39.6
 20
21.4
 10
41.9
 20
21.4
 10
41.9
 20
-23.4
  0
LWPOLYLINE
100
AcDbEntity
  8
0
100
AcDbPolyline
 90
4
 70
1
 10
42.1
 20
-23.4
 10
42.1
 20
21.4
 10
43.4
 20
21.4
 10
43.4
 20
-23.4
  0
LWPOLYLINE
100
AcDbEntity
  8
0
100
AcDbPolyline
 90
4
 70
1
 10
43.6
 20
-23.4
 10
43.6
 20
21.4
 10
45.9
 20
21.4
 10
45.9
 20
-23.4
  0
LWPOLYLINE
100
AcDbEntity
  8
0
100
AcDbPolyline
 90
4
 70
1
 10
-59.9
 20
-25.5213
 10
-59.9
 20
-23.6
 10
-57.6
 20
-23.6
 10
-57.6
 20
-25.5213
  0
LWPOLYLINE
100
AcDbEntity
  8
0
100
AcDbPolyline
 90
4
 70
1
 10
-55.65
 20
-27.4
 10
-55.65
 20
-23.6
 10
-53.85
 20
-23.6
 10
-53.85
 20
-27.4
  0
LWPOLYLINE
100
AcDbEntity
  8
0
100
AcDbPolyline
 90
4
 70
1
 10
-53.4
 20
-25.9
 10
-53.4
 20
-23.6
 10
-22.6
 20
-23.6
 10
-22.6
 20
-25.9
  0
LWPOLYLINE
100
AcDbEntity
  8
0
100
AcDbPolyline
 90
4
 70
1
 10
-22.4
 20
-25.9
 10
-22.4
 20
-23.6
 10
8.4
 20
-23.6
 10
8.4
 20
-25.9
  0
LWPOLYLINE
100
AcDbEntity
  8
0
100
AcDbPolyline
 90
4
 70
1
 10
8.6
 20
-25.9
 10
8.6
 20
-23.6
 10
39.4
 20
-23.6
 10
39.4
 20
-25.9
  0
LWPOLYLINE
100
AcDbEntity
  8
0
100
AcDbPolyline
 90
4
 70
1
 10
39.85
 20
-27.4
 10
39.85
 20
-23.6
 10
41.65
 20
-23.6
 10
41.65
 20
-27.4
  0
LWPOLYLINE
100
AcDbEntity
  8
0
100
AcDbPolyline
 90
4
 70
1
 10
43.6
 20
-25.5213
 10
43.6
 20
-23.6
 10
45.9
 20
-23.6
 10
45.9
 20
-25.5213
  0
LWPOLYLINE
100
AcDbEntity
  8
0
100
AcDbPolyline
 90
4
 70
1
 10
-59.65
 20
-29.5213
 10
-59.65
 20
-25.7213
 10
-57.85
 20
-25.7213
 10
-57.85
 20
-29.5213
  0
LWPOLYLINE
100
AcDbEntity
  8
0
100
AcDbPolyline
 90
4
 70
1
 10
43.85
 20
-29.5213
 10
43.85
 20
-25.7213
 10
45.65
 20
-25.7213
 10
45.65
 20
-29.5213
  0
LWPOLYLINE
100
AcDbEntity
  8
0
100
AcDbPolyline
 90
4
 70
1
 10
-53.4
 20
-27.4
 10
-53.4
 20
-26.1
 10
-22.6
 20
-26.1
 10
-22.6
 20
-27.4
  0
LWPOLYLINE
100
AcDbEntity
  8
0
100
AcDbPolyline
 90
4
 70
1
 10
-22.4
 20
-27.4
 10
-22.4
 20
-26.1
 10
8.4
 20
-26.1
 10
8.4
 20
-27.4
  0
LWPOLYLINE
100
AcDbEntity
  8
0
100
AcDbPolyline
 90
4
 70
1
 10
8.6
 20
-27.4
 10
8.6
 20
-26.1
 10
39.4
 20
-26.1
 10
39.4
 20
-27.4
  0
LWPOLYLINE
100
AcDbEntity
  8
0
100
AcDbPolyline
 90
4
 70
1
 10
-53.4
 20
-29.9
 10
-53.4
 20
-27.6
 10
-22.6
 20
-27.6
 10
-22.6
 20
-29.9
  0
LWPOLYLINE
100
AcDbEntity
  8
0
100
AcDbPolyline
 90
4
 70
1
 10
-22.4
 20
-29.9
 10
-22.4
 20
-27.6
 10
8.4
 20
-27.6
 10
8.4
 20
-29.9
  0
LWPOLYLINE
100
AcDbEntity
  8
0
100
AcDbPolyline
 90
4
 70
1
 10
8.6
 20
-29.9
 10
8.6
 20
-27.6
 10
39.4
 20
-27.6
 10
39.4
 20
-29.9
  0
ENDSEC
  0
EOF
